<?xml version="1.0" standalone="no"?>
<!DOCTYPE svg PUBLIC "-//W3C//DTD SVG 20010904//EN"
 "http://www.w3.org/TR/2001/REC-SVG-20010904/DTD/svg10.dtd">
<svg version="1.0" xmlns="http://www.w3.org/2000/svg"
 width="1000.000000pt" height="200.000000pt" viewBox="0 0 1000.000000 200.000000"
 preserveAspectRatio="xMidYMid meet">

<g transform="translate(0.000000,200.000000) scale(0.100000,-0.100000)"
fill="currentColor" stroke="none">
<path d="M5424 1606 c-72 -32 -71 -166 1 -200 39 -19 166 -22 214 -5 79 28 84
172 6 204 -44 19 -179 19 -221 1z"/>
<path d="M40 1546 c0 -3 59 -152 130 -332 l130 -328 0 -128 0 -128 150 0 150
0 0 130 0 130 129 327 130 328 -156 3 c-86 1 -160 -1 -163 -5 -4 -5 -24 -75
-45 -158 -21 -82 -40 -152 -42 -154 -8 -10 -17 15 -44 126 -17 65 -35 135 -40
156 l-10 37 -159 0 c-88 0 -160 -2 -160 -4z"/>
<path d="M967 1098 c-65 -249 -117 -456 -117 -460 0 -5 69 -8 154 -8 l154 0 6
38 c4 20 12 54 17 75 l10 38 121 -3 121 -3 16 -70 16 -70 153 -3 c113 -2 152
1 152 9 0 7 -52 212 -115 457 -63 244 -115 446 -115 448 0 2 -103 4 -228 4
l-228 0 -117 -452z m377 60 c15 -62 29 -121 32 -130 5 -16 -3 -18 -64 -18
l-70 0 13 58 c8 31 22 90 31 130 9 39 20 72 24 72 5 0 20 -51 34 -112z"/>
<path d="M1827 1098 c-15 -249 -28 -456 -27 -461 0 -4 69 -6 153 -5 l152 3 6
150 c4 83 7 184 8 225 1 46 5 70 10 61 5 -7 33 -109 62 -227 l54 -214 112 0
112 0 10 38 c6 20 31 123 57 227 52 208 61 215 63 50 1 -49 4 -141 8 -202 l6
-113 154 0 154 0 -5 53 c-3 28 -15 216 -26 417 -11 201 -23 384 -26 408 l-5
42 -191 -2 -191 -3 -56 -227 c-31 -125 -59 -230 -63 -233 -3 -4 -32 100 -63
229 l-58 236 -191 0 -192 0 -27 -452z"/>
<path d="M3030 1090 l0 -460 295 0 295 0 0 115 0 114 -147 3 -148 3 -3 343 -2
342 -145 0 -145 0 0 -460z"/>
<path d="M4440 1090 l0 -462 283 4 c264 4 286 6 347 28 90 33 149 93 181 186
22 63 24 85 24 249 0 160 -3 186 -22 239 -39 102 -88 151 -191 189 -52 19 -82
21 -339 25 l-283 4 0 -462z m454 221 c29 -5 55 -16 63 -27 18 -25 19 -362 0
-388 -16 -22 -75 -35 -159 -36 l-68 0 0 223 c0 123 3 227 7 230 9 9 96 8 157
-2z"/>
<path d="M7170 1425 l-55 -44 -80 6 c-162 11 -316 -30 -368 -98 -39 -51 -49
-87 -49 -171 0 -128 52 -207 161 -243 28 -9 51 -17 51 -18 0 -1 -9 -26 -20
-55 -11 -29 -20 -63 -20 -76 0 -34 50 -54 154 -62 82 -7 86 -8 86 -30 0 -24
-2 -24 -94 -24 -84 0 -213 17 -256 34 -13 5 -19 -12 -34 -99 -10 -59 -15 -109
-12 -112 17 -17 149 -35 296 -40 183 -6 263 6 331 52 50 33 80 97 80 174 1 75
-6 99 -39 134 -29 30 -92 52 -184 62 -47 5 -58 10 -58 24 0 14 11 20 52 24 78
10 158 54 185 101 28 51 37 127 24 206 l-11 64 41 48 40 48 -73 70 c-40 38
-77 69 -83 69 -5 0 -35 -20 -65 -44z m-130 -292 c0 -32 -4 -64 -8 -71 -10 -15
-66 -32 -109 -32 l-33 0 0 64 c0 79 17 96 97 96 l53 0 0 -57z"/>
<path d="M3783 1392 c-45 -10 -85 -21 -88 -24 -8 -7 14 -150 25 -168 5 -9 21
-9 65 -1 32 6 105 11 162 11 l103 0 0 -35 c0 -33 -4 -37 -52 -59 -153 -67
-209 -100 -257 -150 -60 -64 -71 -100 -71 -233 l0 -103 315 0 315 0 0 95 0 95
-172 2 c-163 3 -173 4 -173 22 0 15 16 24 66 42 217 73 289 145 289 289 0 103
-34 171 -103 207 -37 19 -60 22 -192 25 -114 2 -170 -2 -232 -15z"/>
<path d="M6028 1380 c-80 -10 -177 -31 -183 -40 -2 -4 3 -51 12 -104 l16 -98
31 6 c122 22 162 26 244 26 l93 0 -3 -27 -3 -28 -115 -6 c-141 -8 -216 -33
-276 -93 -46 -45 -64 -93 -64 -171 0 -154 88 -235 257 -235 78 0 174 30 226
72 l39 30 42 -41 c41 -40 43 -41 114 -41 l72 0 0 288 c0 258 -2 291 -19 327
-10 22 -29 50 -42 62 -75 68 -241 96 -441 73z m210 -475 c5 -64 -14 -80 -95
-80 l-68 0 2 43 c1 24 7 50 13 57 12 15 54 23 110 21 33 -1 35 -3 38 -41z"/>
<path d="M7829 1367 c-37 -13 -82 -35 -102 -50 -20 -15 -40 -27 -44 -27 -5 0
-27 18 -48 40 -38 39 -41 40 -107 40 l-68 0 0 -370 0 -370 145 0 145 0 0 213
0 213 28 16 c15 9 53 21 84 28 l57 13 -6 101 c-3 56 -8 118 -12 138 l-6 37
-66 -22z"/>
<path d="M8209 1380 c-95 -12 -178 -30 -184 -40 -3 -5 2 -53 11 -108 l17 -99
51 14 c28 8 111 17 184 20 l134 6 -4 -29 -3 -29 -110 -6 c-124 -7 -151 -12
-215 -44 -91 -46 -130 -113 -130 -224 0 -97 36 -165 105 -201 43 -22 62 -25
150 -25 89 0 107 3 160 28 33 16 70 38 83 49 l22 22 43 -42 c42 -42 44 -42
115 -42 l73 0 -3 293 c-3 264 -5 296 -22 331 -24 47 -83 91 -150 111 -62 19
-237 27 -327 15z m209 -475 c5 -63 -13 -79 -97 -83 l-71 -4 0 39 c0 70 32 92
130 89 33 -1 35 -3 38 -41z"/>
<path d="M9213 1380 c-46 -10 -95 -33 -132 -62 l-25 -19 -36 36 c-36 35 -39
36 -106 33 l-69 -3 -3 -367 -2 -368 150 0 150 0 0 238 c0 175 3 243 13 255 7
10 29 17 57 19 l45 3 3 -257 2 -258 145 0 145 0 0 238 c0 270 -2 264 78 277
l42 7 0 -261 0 -261 145 0 145 0 0 318 c0 293 -1 319 -19 348 -57 93 -259 121
-394 55 l-41 -20 -51 24 c-57 28 -172 40 -242 25z"/>
<path d="M5515 1345 c-49 -7 -98 -14 -107 -14 -17 -1 -18 -25 -18 -351 l0
-350 145 0 145 0 0 365 0 365 -37 -1 c-21 -1 -78 -7 -128 -14z"/>
</g>
</svg>
